<?xml version="1.0" encoding="UTF-8"?>
<svg id="Capa_1" data-name="Capa 1" xmlns="http://www.w3.org/2000/svg" viewBox="0 0 376.23 385.03">
  <defs>
    <style>
      .cls-1 {
        fill: #dbdbdb;
      }
    </style>
  </defs>
  <path class="cls-1" d="M148.48,299.75c0,10.93,0,21.78,0,32.27,0,.18-.14,.33-.32,.34-3.69,.11-37.57,.84-54.56-.1-29.27-1.63-49.86-24.22-49.91-53.57-.08-45.24-.02-90.48-.02-135.72,0-1.63,0-3.27,0-5.92-7.65,5.31-14.83,10.29-22.25,15.44-1.46,1.01-3.46,.65-4.48-.8-5.43-7.75-10.81-15.43-16.34-23.32-1.01-1.45-.69-3.45,.73-4.49,.37-.27,.74-.53,1.11-.79C58.61,83.75,114.79,44.42,170.97,5.1c9.67-6.77,15.8-6.81,25.42-.08,56.4,39.47,112.8,78.96,169.19,118.45l.49,.34c1.45,1.02,1.81,3.04,.79,4.49-5.39,7.71-10.75,15.39-16.32,23.35-1.03,1.47-3.05,1.83-4.52,.81-7.21-5.03-14.39-10.03-22.08-15.4v16.43c0,1.97-1.6,3.57-3.57,3.57h-28.11c-1.97,0-3.57-1.6-3.57-3.57v-.59c0-12.44,.09-24.88-.11-37.31-.03-1.68-1.13-3.96-2.47-4.9-33.15-23.38-66.42-46.6-99.6-69.95-2.2-1.55-3.61-1.34-5.68,.11-33.08,23.25-66.2,46.44-99.37,69.57-2.01,1.4-2.79,2.84-2.79,5.31,.08,54.4,.04,108.8,.07,163.19,0,11.18,7.32,18.51,18.46,18.54,16.2,.05,32.39,.02,49.01,.01,1.25,0,2.27,1.01,2.27,2.26Z"/>
  <path class="cls-1" d="M376.23,280.1c-.08,57.78-47.09,104.8-104.94,104.94-57.88,.14-105.08-47.13-104.99-105.16,.09-58.18,47.18-105.08,105.21-104.79,58.04,.29,104.8,47.18,104.72,105.01Zm-35.04-.2c-.05-38.51-31.32-69.82-69.87-69.96-38.52-.13-70.19,31.52-70.16,70.12,.04,38.62,31.63,70.04,70.32,69.91,38.5-.12,69.75-31.55,69.7-70.08Z"/>
  <path class="cls-1" d="M288.63,262.51h21.68c2.44,0,4.41,1.98,4.41,4.41v26.02c0,2.44-1.98,4.41-4.41,4.41h-21.43v21.69c0,2.44-1.98,4.41-4.41,4.41h-26.32c-2.44,0-4.41-1.98-4.41-4.41v-21.47h-21.63c-2.44,0-4.41-1.98-4.41-4.41v-26.13c0-2.44,1.98-4.41,4.41-4.41h21.43v-21.77c0-2.44,1.98-4.41,4.41-4.41h26.28c2.44,0,4.41,1.98,4.41,4.41v21.66Z"/>
</svg>