<?xml version="1.0" standalone="no"?>
<!DOCTYPE svg PUBLIC "-//W3C//DTD SVG 20010904//EN"
 "http://www.w3.org/TR/2001/REC-SVG-20010904/DTD/svg10.dtd">
<svg version="1.0" xmlns="http://www.w3.org/2000/svg"
 width="512.000000pt" height="512.000000pt" viewBox="0 0 512.000000 512.000000"
 preserveAspectRatio="xMidYMid meet">

<g transform="translate(0.000000,512.000000) scale(0.100000,-0.100000)"
fill="#000000" stroke="none">
<path d="M2000 4778 c-54 -17 -75 -31 -131 -87 -58 -58 -70 -76 -88 -135 -12
-37 -21 -83 -21 -102 l0 -34 -247 0 c-260 0 -320 -7 -414 -49 -71 -32 -163
-104 -207 -163 -95 -127 -122 -222 -122 -436 0 -139 1 -144 25 -167 23 -24 31
-25 135 -25 l110 0 0 -1433 c0 -1557 -3 -1484 55 -1597 32 -63 112 -143 175
-175 112 -57 69 -55 1287 -55 793 0 1138 3 1175 11 119 26 241 117 293 219 58
113 55 40 55 1597 l0 1433 110 0 c104 0 112 1 135 25 24 23 25 29 25 163 0
166 -11 234 -54 327 -63 136 -171 236 -312 292 -68 27 -72 27 -346 31 l-278 4
0 33 c0 55 -38 157 -75 204 -50 62 -101 98 -174 121 -60 19 -89 20 -555 19
-466 0 -494 -1 -556 -21z m1091 -161 c57 -30 100 -91 106 -151 l6 -46 -643 0
-643 0 6 46 c6 60 49 121 106 151 l44 23 487 0 487 0 44 -23z m810 -373 c75
-23 131 -58 183 -115 77 -85 105 -168 106 -306 l0 -83 -1630 0 -1630 0 0 83
c1 146 32 230 120 318 54 54 122 95 184 110 17 4 612 7 1322 8 1159 1 1296 -1
1345 -15z m17 -2111 l-3 -1448 -24 -45 c-32 -61 -67 -97 -126 -128 l-50 -27
-1135 -3 c-1298 -3 -1204 -9 -1297 84 -90 89 -83 -38 -83 1586 l0 1428 1360 0
1360 0 -2 -1447z"/>
<path d="M1765 2985 l-25 -24 0 -945 c0 -681 3 -952 11 -970 14 -31 57 -49 93
-40 59 14 56 -38 56 1002 l0 953 -25 24 c-15 16 -36 25 -55 25 -19 0 -40 -9
-55 -25z"/>
<path d="M2505 2985 l-25 -24 0 -950 c0 -522 3 -957 6 -966 9 -23 62 -48 90
-41 13 4 33 16 44 28 20 22 20 31 20 975 l0 954 -25 24 c-15 16 -36 25 -55 25
-19 0 -40 -9 -55 -25z"/>
<path d="M3245 2985 l-25 -24 0 -953 c0 -1040 -3 -988 56 -1002 37 -10 80 10
93 42 8 19 11 302 9 975 l-3 949 -24 19 c-32 26 -77 24 -106 -6z"/>
</g>
</svg>
