<?xml version="1.0" encoding="UTF-8"?>
<svg id="Capa_1" data-name="Capa 1" xmlns="http://www.w3.org/2000/svg" viewBox="0 0 753.57 405.94">
  <defs>
    <style>
      .cls-1 {
        fill: #1d1d1b;
      }
    </style>
  </defs>
  <path class="cls-1" d="M382.25,293.26c-4.16,14.99-22.86,74.37-29.78,91.67H15.86v-16.14c64.41-4.04,69.26-9.22,69.26-56.5V84.55c0-51.31-7.62-54.19-59.56-58.23V10.18H237.49c65.1,0,92.12-.58,100.43-1.15,.69,14.41,3.46,57.65,6.23,88.21l-20.78,2.88c-6.23-19.6-13.16-31.71-20.78-43.82-11.08-19.03-27.01-23.06-68.57-23.06h-65.8c-21.47,0-22.86,1.73-22.86,18.45v127.41h76.88c51.94,0,55.41-8.65,63.72-47.85h21.47v118.77h-21.47c-9-41.51-14.54-47.28-64.41-47.28h-76.19v114.73c0,40.36,15.24,43.82,49.87,44.39h64.41c42.25,0,49.17-5.19,64.41-20.18,13.16-12.11,27.7-35.75,37.4-53.04l20.78,4.61Z"/>
  <path class="cls-1" d="M686.22,40.6l20.66-35.64h18.86l7.79,148.28h-20.06c-13.17-41.7-29.74-72.43-49.7-92.21-24.75-24.75-54.29-37.13-88.61-37.13-37.12,0-67.36,13.79-90.71,41.37-23.35,27.58-35.03,74.26-35.03,140.05,0,55.32,13.37,97.53,40.12,126.6,22.75,24.59,54.68,36.88,95.8,36.88,35.93,0,66.06-9.59,90.41-28.78,24.35-19.19,40.21-48.14,47.6-86.85h21.26c-6.19,43.86-24.25,77.59-54.19,101.18-29.94,23.59-67.66,35.39-113.16,35.39-36.93,0-70.8-7.73-101.64-23.18-30.84-15.45-55.49-37.67-73.95-66.66-18.46-28.99-27.69-60.76-27.69-95.32,0-36.71,9.53-71.19,28.59-103.42,19.06-32.23,43.46-56.45,73.2-72.64,29.73-16.2,61.77-24.3,96.1-24.3,19.16,0,37.72,2.74,55.68,8.22,17.96,5.48,37.52,14.87,58.68,28.16Z"/>
</svg>